<svg width="24" height="24" viewBox="0 0 24 24" fill="none" xmlns="http://www.w3.org/2000/svg">
<path d="M12 0C5.37 0 0 5.37 0 12C0 17.31 3.435 21.795 8.205 23.385C8.805 23.49 9 23.13 9 22.815C9 22.53 9.015 21.585 9 20.46C5.67 21.15 4.965 19.125 4.965 19.125C4.425 17.775 3.645 17.4 3.645 17.4C2.55 16.695 3.735 16.71 3.735 16.71C4.95 16.785 5.58 17.94 5.58 17.94C6.645 19.74 8.355 19.215 9.045 18.9C9.15 18.045 9.465 17.475 9.81 17.145C7.14 16.815 4.32 15.765 4.32 11.235C4.32 9.93 4.77 8.85 5.505 8.01C5.385 7.68 4.995 6.45 5.625 4.785C5.625 4.785 6.645 4.47 8.985 6.015C9.915 5.73 10.905 5.58 11.895 5.58C12.885 5.58 13.875 5.73 14.805 6.015C17.145 4.47 18.165 4.785 18.165 4.785C18.795 6.45 18.405 7.68 18.285 8.01C19.02 8.85 19.47 9.93 19.47 11.235C19.47 15.78 16.635 16.8 13.965 17.13C14.385 17.535 14.775 18.345 14.775 19.56C14.775 21.285 14.76 22.68 14.76 22.815C14.76 23.13 14.94 23.49 15.54 23.385C20.31 21.795 23.745 17.31 23.745 12C23.745 5.37 18.375 0 11.745 0H12Z" fill="currentColor"/>
</svg>
